<svg width="16" height="16" viewBox="0 0 16 16" xmlns="http://www.w3.org/2000/svg">
    <path d="M10.58 8.594A2.583 2.583 0 0 1 8 11.174a2.583 2.583 0 0 1-2.58-2.58A2.583 2.583 0 0 1 8 6.014a2.584 2.584 0 0 1 2.58 2.58zM16 4.929v7.33a1.77 1.77 0 0 1-1.77 1.769H1.77A1.77 1.77 0 0 1 0 12.258V4.93C0 3.952.792 3.16 1.77 3.16h2.175v-.612C3.945 1.693 4.638 1 5.493 1h5.014c.855 0 1.548.693 1.548 1.548v.612h2.176c.977 0 1.769.792 1.769 1.77zm-4.093 3.665A3.912 3.912 0 0 0 8 4.686a3.912 3.912 0 0 0-3.907 3.908A3.912 3.912 0 0 0 8 12.5a3.912 3.912 0 0 0 3.907-3.907z" fill="#FFF" fill-rule="evenodd"/>
</svg>
