<svg width="16" height="16" viewBox="0 0 16 16" xmlns="http://www.w3.org/2000/svg">
    <path d="m9.762 8 5.982-5.983A.87.87 0 0 0 16 1.398a.868.868 0 0 0-.256-.618L15.22.255A.868.868 0 0 0 14.601 0a.868.868 0 0 0-.619.255L8 6.238 2.018.255A.867.867 0 0 0 1.399 0 .867.867 0 0 0 .78.255L.256.78a.876.876 0 0 0 0 1.237l5.982 5.982-5.982 5.983a.87.87 0 0 0-.255.619c0 .234.09.454.255.618l.524.524A.868.868 0 0 0 1.4 16c.234 0 .454-.09.619-.256L8 9.761l5.982 5.982a.868.868 0 0 0 .619.256c.235 0 .454-.09.619-.256l.524-.524a.87.87 0 0 0 .256-.618.87.87 0 0 0-.256-.62L9.762 8z" fill="#2A2A2A" fill-rule="nonzero"/>
</svg>
