<svg width="17" height="16" viewBox="0 0 17 16" xmlns="http://www.w3.org/2000/svg">
    <g fill="#764CF0" fill-rule="nonzero">
        <path d="M9.837 9.795a2.403 2.403 0 0 1-2.674 0L.607 5.424A2.359 2.359 0 0 1 .5 5.348v7.162c0 .822.666 1.473 1.473 1.473h13.054c.821 0 1.473-.666 1.473-1.473V5.348a2.35 2.35 0 0 1-.107.076l-6.556 4.37z"/>
        <path d="m1.127 4.643 6.556 4.372a1.47 1.47 0 0 0 1.634 0l6.556-4.372c.393-.26.627-.698.627-1.17C16.5 2.66 15.84 2 15.028 2H1.972C1.161 2 .5 2.66.5 3.473c0 .472.234.91.627 1.17z"/>
    </g>
</svg>
