<svg width="17" height="16" viewBox="0 0 17 16" xmlns="http://www.w3.org/2000/svg">
    <g fill="#764CF0" fill-rule="nonzero">
        <path d="M6.133.404C5.48.243 4.663.081 4.01.081c-.653 0-1.47.162-2.122.323C1.316.484.908.97.827 1.535.745 2.182.5 3.475.5 4.364c0 .889.163 2.02.245 2.828.082.566.49 1.05 1.061 1.131.572.162 1.47.243 2.123.243.653 0 1.469-.162 2.122-.243.571-.08.98-.565 1.061-1.131.164-.808.245-1.94.245-2.828 0-.89-.163-2.182-.245-2.829 0-.565-.408-1.05-.98-1.13zm8.98 7.273c-.572-.162-1.47-.243-2.123-.243-.653 0-1.47.162-2.123.243-.571.08-.98.565-1.06 1.131-.164.808-.246 1.94-.246 2.828 0 .89.163 2.02.245 2.829.082.565.49 1.05 1.061 1.13.572.163 1.47.243 2.123.243.653 0 1.47-.161 2.122-.242.572-.08.98-.566 1.061-1.131.164-.808.245-1.94.245-2.829 0-.889-.081-2.02-.245-2.828-.081-.566-.49-1.05-1.06-1.131zM6.214 10.909c-.653-.162-1.47-.242-2.204-.242-.734 0-1.55.161-2.204.242-.49.08-.898.485-1.061.97-.163.565-.245 1.05-.245 1.454 0 .404.082.808.245 1.455.163.485.571.808 1.061.97.653.161 1.47.242 2.204.242.735 0 1.551-.162 2.204-.242.49-.081.898-.485 1.062-.97.163-.566.244-1.05.244-1.455 0-.404-.081-.808-.244-1.454-.164-.566-.572-.89-1.062-.97zm4.572-5.818c.653.162 1.47.242 2.204.242.734 0 1.55-.161 2.204-.242.49-.08.898-.485 1.061-.97.163-.565.245-1.05.245-1.454 0-.404-.082-.808-.245-1.455-.163-.485-.571-.808-1.061-.97C14.54.081 13.724 0 12.99 0c-.735 0-1.551.162-2.204.242-.49.081-.898.485-1.062.97-.163.566-.244 1.05-.244 1.455 0 .404.081.808.244 1.454.164.566.572.89 1.062.97z"/>
    </g>
</svg>
