<?xml version="1.0" encoding="utf-8"?>
<!-- Generator: Adobe Illustrator 25.2.3, SVG Export Plug-In . SVG Version: 6.00 Build 0)  -->
<svg version="1.1" id="Layer_1" xmlns="http://www.w3.org/2000/svg" xmlns:xlink="http://www.w3.org/1999/xlink" x="0px" y="0px"
	 viewBox="0 0 313.77 434.46" style="enable-background:new 0 0 313.77 434.46;" xml:space="preserve">
<style type="text/css">
	.st0{fill:#FFFFFF;}
	.st1{font-family:'Helvetica';}
	.st2{font-size:24.7752px;}
	.st3{font-family:'Helvetica-Bold';}
	.st4{clip-path:url(#SVGID_2_);fill:url(#SVGID_3_);}
	.st5{clip-path:url(#SVGID_5_);fill:url(#SVGID_6_);}
</style>
<text transform="matrix(1 0 0 1 167.8384 397.8845)" class="st0 st1 st2">by </text>
<text transform="matrix(1 0 0 1 200.8872 397.8845)" class="st0 st3 st2">NeoPa</text>
<text transform="matrix(1 0 0 1 277.9888 397.8845)" class="st0 st3 st2">y</text>
<polygon class="st0" points="165.2,128.6 245,82.77 259.13,90.06 259.13,214.33 245.22,222.54 71.03,121.52 71.03,182.97 
	111.16,160.06 137.38,175.46 57.7,222.54 43.67,214.68 43.67,90.45 57.82,82.77 231.94,183.25 231.77,120.63 191.79,144.94 "/>
<polygon class="st0" points="151.4,28.35 72.17,73.8 151.4,119.71 230.4,74.02 "/>
<polygon class="st0" points="151.4,185.33 72.17,230.77 151.4,276.67 230.4,231 "/>
<polygon class="st0" points="26.07,309.85 26.07,367.89 43.77,367.89 43.77,324.9 63.1,324.9 63.1,367.89 80.53,367.89 
	80.53,321.27 68.51,309.85 "/>
<path class="st0" d="M193.34,309.85h-29.66l-12.13,11.42v34.71l12.13,11.98h29.66l12.13-11.98v-34.71L193.34,309.85z M188.18,352.92
	h-9.66h-9.67V324.9h19.33V352.92z"/>
<path class="st0" d="M100.12,309.85l-10.95,11.43v34.7c0,0,8.02,7.94,11.8,11.92h41.94v-14.99h-36.18v-9.34h36.18v-22.31
	l-10.95-11.42L100.12,309.85L100.12,309.85z M127.53,334.24h-20.79v-9.34h20.79V334.24z"/>
<polygon class="st0" points="26.07,309.85 26.07,367.89 43.77,367.89 43.77,324.9 63.1,324.9 63.1,367.89 80.53,367.89 
	80.53,321.27 68.51,309.85 "/>
<path class="st0" d="M193.34,309.85h-29.66l-12.13,11.42v34.71l12.13,11.98h29.66l12.13-11.98v-34.71L193.34,309.85z M188.18,352.92
	h-9.66h-9.67V324.9h19.33V352.92z"/>
<path class="st0" d="M100.12,309.85l-10.95,11.43v34.7c0,0,8.02,7.94,11.8,11.92h41.94v-14.99h-36.18v-9.34h36.18v-22.31
	l-10.95-11.42L100.12,309.85L100.12,309.85z M127.53,334.24h-20.79v-9.34h20.79V334.24z"/>
<g>
	<g>
		<g>
			<defs>
				<path id="SVGID_1_" d="M262.75,301.33c-0.58,0-1.14,0.26-1.5,0.7l-57.87,69.01c-1.79,2.13-0.27,5.38,2.51,5.38h23.98
					c0.58,0,1.14-0.26,1.5-0.7l57.88-69.01c1.78-2.13,0.27-5.38-2.51-5.38H262.75z"/>
			</defs>
			<clipPath id="SVGID_2_">
				<use xlink:href="#SVGID_1_"  style="overflow:visible;"/>
			</clipPath>
			
				<linearGradient id="SVGID_3_" gradientUnits="userSpaceOnUse" x1="232.1515" y1="1042.5977" x2="238.0477" y2="1042.5977" gradientTransform="matrix(9.9247 -11.8278 11.8278 9.9247 -14418.8477 -7227.627)">
				<stop  offset="0" style="stop-color:#FFA400"/>
				<stop  offset="1" style="stop-color:#FFDD00"/>
			</linearGradient>
			<polygon class="st4" points="254.06,420.46 327.98,332.36 238.53,257.3 164.61,345.4 			"/>
		</g>
	</g>
</g>
<g>
	<g>
		<g>
			<defs>
				<path id="SVGID_4_" d="M205.87,301.33c-2.78,0-4.28,3.25-2.51,5.38l57.87,69.01c0.36,0.46,0.93,0.7,1.5,0.7h23.96
					c2.78,0,4.28-3.25,2.51-5.38l-57.88-69.01c-0.36-0.46-0.93-0.7-1.5-0.7H205.87z"/>
			</defs>
			<clipPath id="SVGID_5_">
				<use xlink:href="#SVGID_4_"  style="overflow:visible;"/>
			</clipPath>
			
				<linearGradient id="SVGID_6_" gradientUnits="userSpaceOnUse" x1="235.0984" y1="1088.5253" x2="240.9946" y2="1088.5253" gradientTransform="matrix(10.0269 11.9496 -11.9496 10.0269 10865.25 -13422.1445)">
				<stop  offset="0" style="stop-color:#FFA400"/>
				<stop  offset="1" style="stop-color:#FFDD00"/>
			</linearGradient>
			<polygon class="st5" points="164.61,332.36 238.53,420.46 327.98,345.4 254.06,257.3 			"/>
		</g>
	</g>
</g>
</svg>
