<?xml version="1.0" encoding="UTF-8"?>
<svg width="16px" height="18px" viewBox="0 0 16 18" version="1.1" xmlns="http://www.w3.org/2000/svg" xmlns:xlink="http://www.w3.org/1999/xlink">
    <title>icon/ic_password</title>
    <defs>
        <linearGradient x1="100%" y1="54.3264564%" x2="16.8283326%" y2="54.3264564%" id="linearGradient-1">
            <stop stop-color="#AE6BEA" offset="0%"></stop>
            <stop stop-color="#7C49D7" offset="45.0766697%"></stop>
            <stop stop-color="#5932CC" offset="100%"></stop>
        </linearGradient>
    </defs>
    <g id="UI" stroke="none" stroke-width="1" fill="none" fill-rule="evenodd">
        <g id="Group" transform="translate(-4.000000, -3.000000)" fill="url(#linearGradient-1)">
            <g id="148-open-lock" transform="translate(4.000000, 3.000000)">
                <path d="M14.34375,12.0234375 L14.34375,9.421875 C14.34375,8.64646875 13.7129062,8.015625 12.9375,8.015625 L2.8125,8.015625 C2.03709375,8.015625 1.40625,8.64646875 1.40625,9.421875 L1.40625,15.1875 C1.40625,15.9629062 2.03709375,16.59375 2.8125,16.59375 L12.9375,16.59375 C13.7129062,16.59375 14.34375,15.9629062 14.34375,15.1875 C14.34375,14.7991641 14.6585391,14.484375 15.046875,14.484375 C15.4352109,14.484375 15.75,14.7991641 15.75,15.1875 C15.75,16.7383125 14.4883125,18 12.9375,18 L2.8125,18 C1.2616875,18 0,16.7383125 0,15.1875 L0,9.421875 C0,7.8710625 1.2616875,6.609375 2.8125,6.609375 L3.65494922,6.609375 L3.65494922,4.12966406 C3.65494922,1.85255859 5.54748047,0 7.87369922,0 C10.199918,0 12.0924492,1.86099609 12.0924492,4.1484375 C12.0924492,4.53677344 11.7776602,4.8515625 11.3893242,4.8515625 C11.0009883,4.8515625 10.6861992,4.53677344 10.6861992,4.1484375 C10.6861992,2.63640234 9.42451172,1.40625 7.87369922,1.40625 C6.32288672,1.40625 5.06119922,2.62796484 5.06119922,4.12966406 L5.06119922,6.609375 L12.9375,6.609375 C14.4883125,6.609375 15.75,7.8710625 15.75,9.421875 L15.75,12.0234375 C15.75,12.4117734 15.4352109,12.7265625 15.046875,12.7265625 C14.6585391,12.7265625 14.34375,12.4117734 14.34375,12.0234375 Z M7.171875,12.1992188 C7.171875,12.5875547 7.48666406,12.9023438 7.875,12.9023438 C8.26333594,12.9023438 8.578125,12.5875547 8.578125,12.1992188 C8.578125,11.8108828 8.26333594,11.4960938 7.875,11.4960938 C7.48666406,11.4960938 7.171875,11.8108828 7.171875,12.1992188 Z" id="Shape"></path>
            </g>
        </g>
    </g>
</svg>