<?xml version="1.0" encoding="UTF-8"?>
<svg width="18px" height="18px" viewBox="0 0 18 18" version="1.1" xmlns="http://www.w3.org/2000/svg" xmlns:xlink="http://www.w3.org/1999/xlink">
    <title>icon/ic_usrname</title>
    <defs>
        <linearGradient x1="100%" y1="54.3264564%" x2="16.8283326%" y2="54.3264564%" id="linearGradient-1">
            <stop stop-color="#AE6BEA" offset="0%"></stop>
            <stop stop-color="#7C49D7" offset="45.0766697%"></stop>
            <stop stop-color="#5932CC" offset="100%"></stop>
        </linearGradient>
    </defs>
    <g id="UI" stroke="none" stroke-width="1" fill="none" fill-rule="evenodd">
        <g id="Group" transform="translate(-3.000000, -3.000000)" fill="url(#linearGradient-1)">
            <g id="028-user-1" transform="translate(3.000000, 3.000000)">
                <path d="M17.9543536,15.4238203 C17.8752169,15.0436758 17.5029474,14.7996562 17.1226622,14.878793 C16.7424826,14.9579297 16.498463,15.3303047 16.5776349,15.7104492 C16.6232326,15.9294375 16.5689161,16.153875 16.428713,16.3263516 C16.3475021,16.4262305 16.1664122,16.59375 15.8662482,16.59375 L2.13372474,16.59375 C1.83356068,16.59375 1.65247083,16.4261953 1.5712599,16.3263516 C1.43102161,16.1539102 1.37674036,15.9294375 1.42233802,15.7104492 C2.15204115,12.2055469 5.24350599,9.64525781 8.81358802,9.55891406 C8.9380418,9.56372343 9.06263515,9.5637117 9.18708802,9.55887891 C11.7018849,9.61920703 14.0262755,10.8929531 15.4338966,12.9922383 C15.6501427,13.3147969 16.0868888,13.4009297 16.4094826,13.1846836 C16.732006,12.9684375 16.818174,12.5316563 16.6018927,12.2091328 C15.4481701,10.4884453 13.7728693,9.23723437 11.8626896,8.60853516 C13.026713,7.73564063 13.7812365,6.34489453 13.7812365,4.78125 C13.7812365,2.14488281 11.6363888,0 8.99998646,0 C6.36358411,0 4.21873646,2.14488281 4.21873646,4.78125 C4.21873646,6.34584375 4.97417396,7.73732813 6.13942786,8.61015234 C5.07180286,8.96164453 4.07002552,9.50857031 3.19322865,10.2297656 C1.58546302,11.5522383 0.467599739,13.3968516 0.04561927,15.4238203 C-0.0866385425,16.0589883 0.0718106763,16.7113477 0.480255989,17.2135898 C0.886697395,17.7133711 1.48938099,18 2.13372474,18 L15.866213,18 C16.5105919,18 17.1132755,17.7133711 17.5196818,17.2135898 C17.9281974,16.7113477 18.0866115,16.0589883 17.9543536,15.4238203 Z M5.62498646,4.78125 C5.62498646,2.92025391 7.13899036,1.40625 8.99998646,1.40625 C10.8609826,1.40625 12.3749865,2.92025391 12.3749865,4.78125 C12.3749865,6.58494141 10.9527404,8.06269922 9.17081068,8.15199609 C9.05716004,8.14986841 8.94348041,8.14988013 8.82983021,8.15199609 C7.04758411,8.06308594 5.62498646,6.5851875 5.62498646,4.78125 Z" id="Shape"></path>
            </g>
        </g>
    </g>
</svg>