<svg width="62" height="62" viewBox="0 0 62 62" xmlns="http://www.w3.org/2000/svg" xmlns:xlink="http://www.w3.org/1999/xlink">
    <defs>
        <circle id="vyshlz36pa" cx="31" cy="31" r="31"/>
    </defs>
    <g fill="none" fill-rule="evenodd">
        <mask id="rjrayv3i2b" fill="#fff">
            <use xlink:href="#vyshlz36pa"/>
        </mask>
        <use fill="#F3F3F9" xlink:href="#vyshlz36pa"/>
        <g mask="url(#rjrayv3i2b)" fill="#C0C0C9">
            <path d="M43.396 26.867H18.6V27.9c0 1.141.925 2.067 2.067 2.067h3.1a2.067 2.067 0 0 0 2.066-2.067c0 1.141.926 2.067 2.067 2.067h6.2a2.067 2.067 0 0 0 2.067-2.067c0 1.141.925 2.067 2.066 2.067h3.1A2.067 2.067 0 0 0 43.4 27.9v-1.033h-.004zM43.146 25.833l-1.852-6.484a1.033 1.033 0 0 0-.994-.749h-4.733l1.447 7.233h6.132zM26.433 18.6H21.7c-.461 0-.867.306-.994.75l-1.852 6.483h6.132l1.447-7.233zM33.46 18.6h-4.92l-1.446 7.233h7.812zM38.233 31c-.763 0-1.499-.281-2.066-.791A3.088 3.088 0 0 1 34.1 31h-6.2c-.763 0-1.5-.281-2.067-.791a3.088 3.088 0 0 1-2.066.791h-3.1a3.08 3.08 0 0 1-1.034-.18v11.547c0 .57.463 1.033 1.034 1.033h2.066v-9.3c0-.57.463-1.033 1.034-1.033h5.166c.571 0 1.034.462 1.034 1.033v9.3h11.366c.571 0 1.034-.463 1.034-1.033V30.819a3.08 3.08 0 0 1-1.034.181h-3.1zm1.034 6.2c0 .57-.463 1.033-1.034 1.033h-5.166c-.571 0-1.034-.462-1.034-1.033v-3.1c0-.57.463-1.033 1.034-1.033h5.166c.571 0 1.034.462 1.034 1.033v3.1z"/>
        </g>
    </g>
</svg>
