<svg width="16" height="16" viewBox="0 0 16 16" xmlns="http://www.w3.org/2000/svg">
    <path d="M8.252 0a4.512 4.512 0 0 0-4.508 4.508 4.512 4.512 0 0 0 4.508 4.509 4.512 4.512 0 0 0 4.509-4.509A4.512 4.512 0 0 0 8.252 0zm0 7.452a2.95 2.95 0 0 1-2.946-2.947 2.949 2.949 0 0 1 2.946-2.943A2.952 2.952 0 0 1 11.2 4.508a2.947 2.947 0 0 1-2.947 2.944zm7.187 5.814a7.397 7.397 0 0 0-2.46-3.8.782.782 0 0 0-.993 1.207 5.86 5.86 0 0 1 1.943 3.002.598.598 0 0 1-.103.52.619.619 0 0 1-.49.243.781.781 0 0 0 0 1.562c.684 0 1.315-.312 1.73-.856.413-.54.55-1.225.373-1.878zm-4.909 1.169H3.172a.596.596 0 0 1-.484-.24.61.61 0 0 1-.103-.541c.322-1.169.99-2.2 1.93-2.975a.782.782 0 0 0-.993-1.206 7.403 7.403 0 0 0-2.443 3.768 2.174 2.174 0 0 0 .369 1.903c.409.54 1.04.853 1.724.853h7.358a.781.781 0 0 0 0-1.562z" fill="#C0C0C9" fill-rule="evenodd"/>
</svg>
