<svg width="16" height="16" viewBox="0 0 16 16" xmlns="http://www.w3.org/2000/svg">
    <path d="M8.127.73a2.513 2.513 0 0 1 2.666-.565c.838.32 2.052.915 3.068 1.927 1.02 1.015 1.633 2.242 1.966 3.091a2.49 2.49 0 0 1-.561 2.677l-2.484 2.473a2.505 2.505 0 0 1-2.738.536 9.367 9.367 0 0 1-1.299-.663.625.625 0 0 1 .654-1.065c.356.218.734.411 1.125.574a1.259 1.259 0 0 0 1.376-.268l2.484-2.473c.35-.35.46-.873.28-1.334-.29-.738-.818-1.8-1.684-2.662-.862-.858-1.908-1.368-2.633-1.645a1.26 1.26 0 0 0-1.338.283L6.555 4.059c-.363.36-.468.915-.262 1.378.176.396.375.777.592 1.134a.625.625 0 0 1-.093.766L1.25 12.88v1.866h1.5V13.62c0-.345.28-.625.625-.625H4.5V11.87c0-.345.28-.625.625-.625h1.75a.625.625 0 1 1 0 1.25H5.75v1.125c0 .345-.28.625-.625.625H4v1.125c0 .345-.28.625-.625.625H.625A.625.625 0 0 1 0 15.37v-2.75c0-.166.066-.325.183-.442L5.57 6.792c-.15-.274-.29-.557-.419-.847a2.5 2.5 0 0 1 .522-2.772zm3.248 2.645a1 1 0 1 1 0 2 1 1 0 0 1 0-2z" fill="#C0C0C9" fill-rule="evenodd"/>
</svg>
