<svg width="16" height="16" viewBox="0 0 16 16" xmlns="http://www.w3.org/2000/svg">
    <path d="M6.667 6.667a2 2 0 1 0 0 4h2.666a2 2 0 0 0 0-4H6.667zm3.333 2a.667.667 0 0 1-.667.666H6.667a.667.667 0 1 1 0-1.333h2.666c.369 0 .667.298.667.667zm1.333 4a.667.667 0 0 1-.666.666H5.333a.667.667 0 0 1 0-1.333h5.334c.368 0 .666.298.666.667zM13.024 2.08 11.919.977A3.312 3.312 0 0 0 9.562 0H5.333A3.337 3.337 0 0 0 2 3.333v9.334A3.337 3.337 0 0 0 5.333 16h5.334A3.337 3.337 0 0 0 14 12.667V4.438a3.312 3.312 0 0 0-.976-2.357zm-.943.942c.094.095.179.2.252.31h-1.666V1.667c.111.073.215.157.309.251l1.105 1.105zm.586 9.644a2 2 0 0 1-2 2H5.333a2 2 0 0 1-2-2V3.333a2 2 0 0 1 2-2h4v2c0 .737.597 1.334 1.334 1.334h2v8z" fill="#C0C0C9" fill-rule="evenodd"/>
</svg>
