<svg width="22" height="22" viewBox="0 0 22 22" xmlns="http://www.w3.org/2000/svg">
    <path d="M16.824 19.251C16.41 20.827 14.99 22 13.287 22s-3.125-1.173-3.537-2.749h7.074zm4.627-2.74.046-.055c.458-.604.614-1.374.421-2.061L20.406 7.22c-.888-3.17-3.811-5.387-7.12-5.387-3.49 0-6.45 2.364-7.21 5.772l-1.43 6.863a2.424 2.424 0 0 0 2.373 2.95h12.526c.742 0 1.43-.33 1.897-.907h.009zM2.86 14.074 4.28 7.23c.77-3.436 3.317-6.02 6.551-6.9A7.468 7.468 0 0 0 8.706 0c-3.492.01-6.46 2.373-7.22 5.782l-1.43 6.854a2.424 2.424 0 0 0 2.373 2.95h.366a4.208 4.208 0 0 1 .055-1.512h.01z" fill="#C0C0C9" fill-rule="evenodd"/>
</svg>
