<svg width="16" height="16" viewBox="0 0 16 16" xmlns="http://www.w3.org/2000/svg">
    <path d="M.667 3.167h1.824a2.485 2.485 0 0 0 4.797 0h8.045a.667.667 0 1 0 0-1.334H7.288a2.485 2.485 0 0 0-4.797 0H.667a.667.667 0 0 0 0 1.334zm4.222-1.834a1.167 1.167 0 1 1 0 2.334 1.167 1.167 0 0 1 0-2.334zm10.444 6H13.51a2.485 2.485 0 0 0-4.796 0H.667a.667.667 0 0 0 0 1.334h8.046a2.485 2.485 0 0 0 4.796 0h1.824a.667.667 0 1 0 0-1.334zm-4.222 1.834a1.167 1.167 0 1 1 0-2.334 1.167 1.167 0 0 1 0 2.334zm4.222 3.666H7.288a2.485 2.485 0 0 0-4.797 0H.667a.667.667 0 0 0 0 1.334h1.824a2.485 2.485 0 0 0 4.797 0h8.045a.667.667 0 1 0 0-1.334zM4.89 14.667a1.167 1.167 0 1 1 0-2.334 1.167 1.167 0 0 1 0 2.334z" fill="#C0C0C9" fill-rule="evenodd"/>
</svg>
