<svg width="17" height="17" viewBox="0 0 17 17" xmlns="http://www.w3.org/2000/svg">
    <path d="M16.727 10.063a4.338 4.338 0 0 1-4.333 4.333H9.06a4.338 4.338 0 0 1-4.333-4.333A4.338 4.338 0 0 1 9.06 5.73h.98c-.09.76-.508 1.333-1.313 1.333a3.038 3.038 0 0 0-2.667 3c0 1.654 1.346 3 3 3h3.334c1.654 0 3-1.346 3-3a2.994 2.994 0 0 0-1.697-2.69c.157-.42.27-.863.323-1.324a4.339 4.339 0 0 1 2.707 4.014zM2.06 5.396c0-1.654 1.346-3 3-3h3.334c1.654 0 3 1.346 3 3a3.038 3.038 0 0 1-2.667 3c-.805 0-1.223.574-1.314 1.334h.98a4.338 4.338 0 0 0 4.334-4.334 4.338 4.338 0 0 0-4.333-4.333H5.06A4.338 4.338 0 0 0 .727 5.396 4.339 4.339 0 0 0 3.434 9.41c.054-.461.165-.903.323-1.324a2.995 2.995 0 0 1-1.697-2.69z" fill="#C0C0C9" fill-rule="evenodd"/>
</svg>
