<svg width="17" height="17" viewBox="0 0 17 17" xmlns="http://www.w3.org/2000/svg">
    <path d="M15.527 1.838a3.328 3.328 0 0 0-2.733-.72l-2.548.462a2.667 2.667 0 0 0-1.52.86 2.667 2.667 0 0 0-1.522-.86L4.66 1.117a3.333 3.333 0 0 0-3.933 3.28v7.194a3.333 3.333 0 0 0 2.737 3.28l4.19.762a6 6 0 0 0 2.146 0l4.194-.762a3.333 3.333 0 0 0 2.733-3.28V4.396c0-.989-.44-1.926-1.2-2.558zM8.06 14.348a4.892 4.892 0 0 1-.168-.027l-4.19-.762a2 2 0 0 1-1.642-1.968V4.396A2 2 0 0 1 4.42 2.43l2.547.466a1.333 1.333 0 0 1 1.093 1.31v10.143zm7.334-2.757a2 2 0 0 1-1.642 1.968l-4.19.762c-.056.01-.112.02-.168.027V4.204c0-.644.46-1.197 1.094-1.312l2.548-.467a2 2 0 0 1 2.358 1.971v7.195z" fill="#C0C0C9" fill-rule="evenodd"/>
</svg>
