<svg width="17" height="17" viewBox="0 0 17 17" xmlns="http://www.w3.org/2000/svg">
    <path d="M13.394.063H4.06A3.337 3.337 0 0 0 .727 3.396v9.334a3.337 3.337 0 0 0 3.333 3.333h9.334a3.337 3.337 0 0 0 3.333-3.333V3.396A3.337 3.337 0 0 0 13.394.063zm2 3.333h-4.667v-2h2.667a2 2 0 0 1 2 2zm-7.334-2h1.334V4.73a.667.667 0 0 1-1.334 0V1.396zm-4 0h2.667v2H2.06a2 2 0 0 1 2-2zm9.334 13.334H4.06a2 2 0 0 1-2-2v-8h4.667a2 2 0 1 0 4 0h4.667v8a2 2 0 0 1-2 2zm.666-2a.667.667 0 0 1-.666.666h-2a.667.667 0 1 1 0-1.333h2c.368 0 .666.298.666.667z" fill="#C0C0C9" fill-rule="evenodd"/>
</svg>
