<svg width="17" height="17" viewBox="0 0 17 17" xmlns="http://www.w3.org/2000/svg">
    <path d="M10.871.554a.571.571 0 1 1 0 1.143h-7.39c-.89 0-1.61.722-1.611 1.611v10c0 .89.722 1.611 1.612 1.612h10a1.614 1.614 0 0 0 1.611-1.612V6.016a.571.571 0 1 1 1.143 0v7.292a2.758 2.758 0 0 1-2.754 2.755h-10a2.758 2.758 0 0 1-2.755-2.755v-10A2.758 2.758 0 0 1 3.482.554zm2.722.143a1.879 1.879 0 0 1 2.597 0 1.837 1.837 0 0 1 0 2.596l-5.664 5.664a.572.572 0 0 1-.286.155l-2.269.481a.572.572 0 0 1-.677-.677l.48-2.27a.574.574 0 0 1 .156-.286zm-.613 2.23L8.858 7.048l-.264 1.244 1.244-.264 4.122-4.122-.98-.98zm2.402-1.422a.695.695 0 0 0-.98 0l-.614.613.98.98.614-.613c.27-.27.27-.709 0-.98z" fill="#C0C0C9" fill-rule="evenodd"/>
</svg>
