<svg width="16" height="16" viewBox="0 0 16 16" xmlns="http://www.w3.org/2000/svg">
    <g fill="none" fill-rule="evenodd">
        <path d="M15.5 0H.5a.5.5 0 0 0-.5.5v7a.5.5 0 0 0 .5.5h1.838a8.23 8.23 0 0 0 .829-2H3a1 1 0 0 1-1-1V3a1 1 0 0 1 1-1h10a1 1 0 0 1 1 1v2c0 .46-.317.83-.739.947-.117.649-.31 1.338-.595 2.053H15.5a.5.5 0 0 0 .5-.5v-7a.5.5 0 0 0-.5-.5z" fill="#88888E"/>
        <path d="M12.355 3H4.347c.177 1.3.134 3.43-1.273 5.739-2.563 4.204-1.071 6.896-1.007 7.009a.501.501 0 0 0 .434.251h7a.502.502 0 0 0 .436-.746c-.052-.093-1.242-2.328.991-5.993 1.521-2.495 1.61-4.782 1.427-6.26zM6 4.5a.5.5 0 0 1 1 0v1a.5.5 0 0 1-1 0v-1zm2 9a.5.5 0 0 1-1 0v-1a.5.5 0 0 1 1 0v1zm-1-2.75c-.827 0-1.5-.785-1.5-1.75S6.173 7.25 7 7.25 8.5 8.035 8.5 9s-.673 1.75-1.5 1.75z" fill="#C0C0C9"/>
    </g>
</svg>
