<svg width="17" height="17" viewBox="0 0 17 17" xmlns="http://www.w3.org/2000/svg">
    <path d="M8.758.063a7.04 7.04 0 0 0-7.031 7.031v3.813c0 .775.63 1.406 1.406 1.406h.55c.193.546.714.937 1.325.937.776 0 1.406-.63 1.406-1.406V8.032c0-.776-.63-1.407-1.406-1.407-.61 0-1.132.392-1.325.938h-.55a1.4 1.4 0 0 0-.469.08v-.549A6.1 6.1 0 0 1 8.758 1a6.1 6.1 0 0 1 6.094 6.094v.55a1.4 1.4 0 0 0-.469-.081h-.55a1.408 1.408 0 0 0-1.325-.938c-.775 0-1.406.631-1.406 1.407v3.812a1.408 1.408 0 0 0 1.814 1.346 1.409 1.409 0 0 1-1.345.998h-1.487a1.408 1.408 0 0 0-1.326-.938 1.408 1.408 0 0 0 0 2.813c.611 0 1.132-.392 1.326-.938h1.487a2.346 2.346 0 0 0 2.343-2.343v-.469h.47c.775 0 1.405-.63 1.405-1.406V7.094A7.04 7.04 0 0 0 8.76.063zM4.54 8.032a.47.47 0 0 1 .938 0v3.812a.47.47 0 0 1-.938 0V8.032zM3.133 8.5h.469v2.875h-.469a.47.47 0 0 1-.469-.468V8.969a.47.47 0 0 1 .47-.469zm5.625 6.625a.47.47 0 1 1 .001-.938.47.47 0 0 1 0 .938zm4.219-3.28a.47.47 0 0 1-.938 0V8.031a.47.47 0 0 1 .938 0v3.812zm1.875-.938a.47.47 0 0 1-.469.468h-.469V8.5h.47a.47.47 0 0 1 .468.47v1.937z" fill="#C0C0C9" fill-rule="evenodd"/>
</svg>
