<svg width="16" height="16" viewBox="0 0 16 16" xmlns="http://www.w3.org/2000/svg">
    <g fill="none" fill-rule="evenodd">
        <path d="M.218 8.02a.333.333 0 0 0-.198.427l.21.576L1.822 7.43l-1.605.592zm1.509 5.12.96 2.64A.33.33 0 0 0 3 16c.04 0 .078-.007.115-.021l1.06-.39-2.448-2.449zm14.253-2.254-1.1-3.02-2.636 2.636 1.307-.48a.333.333 0 1 1 .23.625l-1.66.611a.332.332 0 0 1-.427-.197l-.001-.006-2.794 2.794 6.883-2.536a.332.332 0 0 0 .198-.427z" fill="#88888E"/>
        <path d="M15.902 5.43 10.57.098a.334.334 0 0 0-.471 0l-10 10a.334.334 0 0 0 0 .471l5.333 5.334a.335.335 0 0 0 .471 0l10-10a.334.334 0 0 0 0-.471zm-12 3.806L2.57 10.569a.335.335 0 0 1-.472 0 .334.334 0 0 1 0-.471l1.334-1.333a.334.334 0 0 1 .472.47zm5.757.423c-.236.236-.557.35-.913.35-.59 0-1.278-.31-1.854-.886-.421-.421-.717-.925-.833-1.418-.128-.55-.022-1.029.297-1.349.32-.32.798-.425 1.348-.297.494.116.998.411 1.42.833.925.925 1.161 2.141.535 2.767zm4.243-3.756L12.57 7.236a.335.335 0 0 1-.472 0 .334.334 0 0 1 0-.471L13.43 5.43a.334.334 0 0 1 .472.472z" fill="#C0C0C9"/>
    </g>
</svg>
