<svg width="17" height="17" viewBox="0 0 17 17" xmlns="http://www.w3.org/2000/svg">
    <path d="M8.727 10.73a1 1 0 1 1 0 2 1 1 0 0 1 0-2zm.667-1.334c0-.374.272-.816.618-1.008a2.68 2.68 0 0 0 1.34-2.814 2.684 2.684 0 0 0-2.148-2.147 2.683 2.683 0 0 0-2.191.582 2.662 2.662 0 0 0-.953 2.043.667.667 0 0 0 1.334 0A1.334 1.334 0 1 1 9.369 7.22c-.77.425-1.309 1.32-1.309 2.176a.666.666 0 1 0 1.334 0zm7.333 3.334V3.396A3.337 3.337 0 0 0 13.394.063H4.06A3.337 3.337 0 0 0 .727 3.396v9.334a3.337 3.337 0 0 0 3.333 3.333h9.334a3.337 3.337 0 0 0 3.333-3.333zM13.394 1.396c1.102 0 2 .898 2 2v9.334c0 1.102-.898 2-2 2H4.06c-1.102 0-2-.898-2-2V3.396c0-1.102.898-2 2-2h9.334z" fill="#C0C0C9" fill-rule="evenodd"/>
</svg>
