<svg width="17" height="17" viewBox="0 0 17 17" xmlns="http://www.w3.org/2000/svg">
    <path d="M9.272.063c.402 0 .728.326.728.727v.728a.727.727 0 1 1 0 1.454v10.182a.727.727 0 1 1 0 1.454v.728a.727.727 0 1 1-1.455 0v-.728H4.91a2.182 2.182 0 0 1-2.182-2.181V3.699c0-1.205.977-2.181 2.182-2.181h3.636V.79c0-.401.326-.727.727-.727zm-.727 2.91H4.91a.727.727 0 0 0-.728.726v8.728c0 .401.326.727.728.727h3.636V2.972zm3.636-.728c0-.402.326-.727.728-.727h.727c1.205 0 2.182.976 2.182 2.181v.728a.727.727 0 1 1-1.455 0v-.728a.727.727 0 0 0-.727-.727h-.727a.727.727 0 0 1-.728-.727zm2.91 4.363c.401 0 .727.326.727.728V8.79a.727.727 0 1 1-1.455 0V7.336c0-.402.326-.728.728-.728zm0 4.364c.401 0 .727.326.727.727v.728a2.182 2.182 0 0 1-2.182 2.181h-.727a.727.727 0 1 1 0-1.454h.727a.727.727 0 0 0 .727-.727v-.728c0-.401.326-.727.728-.727z" fill="#C0C0C9" fill-rule="evenodd"/>
</svg>
