<svg width="17" height="17" viewBox="0 0 17 17" xmlns="http://www.w3.org/2000/svg">
    <path d="M16.06 14.786a.667.667 0 0 1-.666-.667 4.004 4.004 0 0 0-4-4H7.507v1.058a1.333 1.333 0 0 1-2.275.942L1.312 8.2a2 2 0 0 1 0-2.828l3.92-3.919a1.333 1.333 0 0 1 2.275.943v1.057h3.22a6.006 6.006 0 0 1 6 6v4.666a.667.667 0 0 1-.667.667zM6.174 2.396l-3.919 3.92a.667.667 0 0 0 0 .942l3.92 3.919V9.453c0-.368.298-.667.666-.667h4.553c1.531 0 2.989.66 4 1.81V9.453a4.672 4.672 0 0 0-4.667-4.666H6.841a.667.667 0 0 1-.667-.667V2.396z" fill="#C0C0C9" fill-rule="evenodd"/>
</svg>
