<svg width="16" height="16" viewBox="0 0 16 16" xmlns="http://www.w3.org/2000/svg">
    <g fill="none" fill-rule="evenodd">
        <path d="M10.242 1.758A5.994 5.994 0 0 0 5.566.016C2.549.229 0 3.06 0 6.198v3.358A2.445 2.445 0 0 0 2.44 12h2.985c3.458 0 6.34-2.445 6.56-5.566a6.011 6.011 0 0 0-1.743-4.677zM6 9.667A.834.834 0 1 1 6 8a.834.834 0 0 1 0 1.667zm.964-3.247c-.298.164-.298.212-.298.247a.666.666 0 1 1-1.333 0c0-.872.692-1.253.987-1.415a.668.668 0 0 0-.194-1.24.661.661 0 0 0-.554.144.664.664 0 0 0-.239.512.666.666 0 1 1-1.333 0A1.997 1.997 0 0 1 6.356 2.7c.806.14 1.47.803 1.612 1.611a2.01 2.01 0 0 1-1.004 2.11V6.42z" fill="#C0C0C9"/>
        <path d="M16 10.667V14a2 2 0 0 1-2 2h-3.334a5.332 5.332 0 0 1-4.613-2.67l.027-.026c3.858-.295 6.98-3.163 7.234-6.776.011-.156.007-.31.008-.466l.009-.008A5.332 5.332 0 0 1 16 10.667z" fill="#88888E"/>
    </g>
</svg>
