<svg width="17" height="17" viewBox="0 0 17 17" xmlns="http://www.w3.org/2000/svg">
    <path d="M14.88.063c1.02 0 1.847.827 1.847 1.846v11.692c0 1.02-.827 1.847-1.846 1.847H2.573A1.846 1.846 0 0 1 .727 13.6V1.91C.727.89 1.553.063 2.573.063zm0 1.23H2.574a.615.615 0 0 0-.615.616v11.692c0 .34.275.616.615.616h12.308c.34 0 .615-.276.615-.616V1.91a.615.615 0 0 0-.615-.615zm-1.538 7.693a.615.615 0 0 1 .434 1.052l-1.846 1.847a.616.616 0 0 1-.87-.871l.796-.797H5.035a.615.615 0 0 1 0-1.23zm-7.51-5.052a.616.616 0 0 1 .87.87l-.797.797h6.822a.615.615 0 0 1 0 1.231H4.419a.615.615 0 0 1-.434-1.052z" fill="#C0C0C9" fill-rule="evenodd"/>
</svg>
