<svg width="17" height="17" viewBox="0 0 17 17" xmlns="http://www.w3.org/2000/svg">
    <path d="M12.82 8.249c.277 0 .508.203.55.468l.008.09v.757c.318.069.615.194.88.365l.536-.535a.557.557 0 0 1 .853.711l-.065.077-.535.536c.172.265.297.561.365.88h.757a.558.558 0 0 1 .09 1.109l-.09.007h-.757a2.637 2.637 0 0 1-.365.88l.535.536a.557.557 0 0 1-.711.853l-.077-.065-.536-.535a2.637 2.637 0 0 1-.88.365v.757a.558.558 0 0 1-1.109.09l-.007-.09v-.757a2.635 2.635 0 0 1-.88-.365l-.536.535a.557.557 0 0 1-.853-.711l.065-.077.535-.537a2.637 2.637 0 0 1-.365-.879h-.757a.558.558 0 0 1-.09-1.109l.09-.007h.757c.068-.318.194-.615.365-.879l-.535-.537a.557.557 0 0 1 .711-.853l.077.065.537.535c.264-.171.56-.296.878-.365v-.757c0-.308.25-.558.559-.558zm-4.465.642a.559.559 0 0 1 0 1.116c-2.21 0-4.176.522-5.39 1.351-.628.428-1.052.925-1.114 1.484l-.008.142v1.08a.15.15 0 0 0 .11.144l.039.004h6.363a.558.558 0 0 1 .09 1.109l-.09.007H1.992a1.268 1.268 0 0 1-1.257-1.122l-.008-.143v-1.08c0-.942.571-1.84 1.608-2.548 1.359-.926 3.548-1.544 6.02-1.544zm4.465 1.73a1.536 1.536 0 0 0-.14 3.064l.135.006h.012a1.536 1.536 0 0 0-.007-3.07zM8.355.063a4.095 4.095 0 0 0-4.093 4.093 4.095 4.095 0 0 0 4.093 4.093 4.095 4.095 0 0 0 4.093-4.093A4.095 4.095 0 0 0 8.355.063zm0 1.116a2.978 2.978 0 0 1 0 5.954 2.978 2.978 0 0 1 0-5.954z" fill="#C0C0C9" fill-rule="evenodd"/>
</svg>
