<svg width="17" height="17" viewBox="0 0 17 17" xmlns="http://www.w3.org/2000/svg">
    <path d="M14.727 3.73H4.06a2.008 2.008 0 0 1-1.49-.666c.367-.41.9-.668 1.49-.668h12a.666.666 0 1 0 0-1.333h-12A3.334 3.334 0 0 0 .727 4.396v6.667a3.334 3.334 0 0 0 3.333 3.333h10.667a2 2 0 0 0 2-2V5.73a2 2 0 0 0-2-2zm.667 8.666a.667.667 0 0 1-.667.667H4.06c-1.102 0-2-.897-2-2V4.395c.57.426 1.27.668 2 .668h10.667c.368 0 .667.3.667.667v6.666zM14.06 9.063a.667.667 0 1 1-1.334 0 .667.667 0 0 1 1.334 0z" fill="#C0C0C9" fill-rule="evenodd"/>
</svg>
