<svg width="16" height="16" viewBox="0 0 16 16" xmlns="http://www.w3.org/2000/svg">
    <path d="M10.075 1.775v1.942c0 .826.641 1.5 1.45 1.573l.144.007h1c.825 0 1.504-.629 1.577-1.436l.007-.144V1.782c.72.021 1.318.583 1.386 1.297l.006.136v11.342c0 .745-.57 1.366-1.296 1.436l-.138.007H1.434a1.44 1.44 0 0 1-1.427-1.304L0 14.557V3.215c0-.732.556-1.335 1.26-1.423l.133-.01v1.935c0 .826.633 1.5 1.44 1.573l.144.007h1A1.59 1.59 0 0 0 5.564 3.86l.006-.144V1.775h4.505zm3.093 5.597H2.45a.62.62 0 0 0-.613.528l-.007.092v5.859c0 .311.23.569.529.613l.091.007h10.72a.62.62 0 0 0 .613-.528l.006-.092V7.992a.62.62 0 0 0-.62-.62zm-7.88 4.26c.202 0 .364.162.364.363v1.267c0 .2-.162.362-.363.362H4.022a.363.363 0 0 1-.363-.362v-1.267c0-.201.162-.363.363-.363zm3.168 0c.2 0 .363.162.363.363v1.267c0 .2-.162.362-.363.362H7.19a.363.363 0 0 1-.363-.362v-1.267c0-.201.163-.363.363-.363zm3.168 0c.2 0 .363.162.363.363v1.267c0 .2-.163.362-.363.362h-1.268a.363.363 0 0 1-.363-.362v-1.267c0-.201.163-.363.363-.363zM5.289 8.464c.175 0 .322.125.356.29l.007.073v1.267a.363.363 0 0 1-.29.356l-.073.007H4.022a.363.363 0 0 1-.356-.29l-.007-.073V8.827c0-.175.124-.322.29-.355l.073-.008h1.267zm3.167 0c.2 0 .363.163.363.363v1.267c0 .2-.162.363-.363.363H7.19a.363.363 0 0 1-.363-.363V8.827c0-.2.163-.363.363-.363zm3.168 0c.2 0 .363.163.363.363v1.267c0 .2-.163.363-.363.363h-1.268a.363.363 0 0 1-.363-.363V8.827c0-.2.163-.363.363-.363zM3.962 0c.3 0 .543.243.543.543v3.173c0 .3-.243.543-.543.543h-.989a.543.543 0 0 1-.543-.543V.543c0-.3.243-.543.543-.543zm8.683 0c.3 0 .543.243.543.543v3.173c0 .3-.243.543-.543.543h-.989a.543.543 0 0 1-.543-.543V.543c0-.3.243-.543.543-.543z" fill="#2A2A2A" fill-rule="nonzero"/>
</svg>
