<svg width="16" height="16" viewBox="0 0 16 16" xmlns="http://www.w3.org/2000/svg">
    <path d="M12.263 0c.572 0 1.11.222 1.515.631l1.594 1.594c.406.403.628.94.628 1.512 0 .572-.225 1.11-.628 1.513l-7.88 7.883a.78.78 0 0 1-1.107 0 .78.78 0 0 1 0-1.106l6.225-6.224-2.413-2.413-8.283 8.284a1.209 1.209 0 0 0-.35.928c.003.016.003.035.003.05l-.003 1.784 1.784-.006.05.003c.344.022.684-.106.928-.35a.78.78 0 0 1 1.106 0 .78.78 0 0 1 0 1.107 2.761 2.761 0 0 1-2.106.806l-2.544.003a.777.777 0 0 1-.78-.781l.002-2.544c-.043-.784.25-1.55.806-2.106l9.94-9.94C11.153.222 11.69 0 12.263 0zm2.956 14.436a.781.781 0 0 1 0 1.563H8.172a.781.781 0 0 1 0-1.563zM12.266 1.562c-.156 0-.3.06-.41.17l-.553.552 2.413 2.413.553-.554a.58.58 0 0 0 0-.818L12.675 1.73a.577.577 0 0 0-.41-.169z" fill="#2A2A2A" fill-rule="nonzero"/>
</svg>
