<svg width="73" height="72" viewBox="0 0 73 72" xmlns="http://www.w3.org/2000/svg">
    <g fill="#C0C0C9" fill-rule="evenodd">
        <g transform="translate(15.067 3.345)">
            <path d="M42.465 13.444 34.32 5.298c-.191-.19-.45-.298-.72-.298H3.055A3.058 3.058 0 0 0 0 8.055v49.89A3.058 3.058 0 0 0 3.055 61h36.654a3.058 3.058 0 0 0 3.055-3.055V14.164c0-.27-.108-.53-.299-.72zm-7.847-4.968 4.67 4.67h-4.67v-4.67zm5.091 50.488H3.055a1.02 1.02 0 0 1-1.019-1.019V8.055a1.02 1.02 0 0 1 1.019-1.019h29.527v7.128c0 .562.456 1.018 1.018 1.018h7.127v42.763a1.02 1.02 0 0 1-1.018 1.019zM49.05 4.113a1.018 1.018 0 0 0-1.44 0l-.72.72-.719-.72a1.018 1.018 0 1 0-1.44 1.44l.72.72-.72.72a1.018 1.018 0 1 0 1.44 1.44l.72-.72.72.72a1.015 1.015 0 0 0 1.44 0 1.018 1.018 0 0 0 0-1.44l-.72-.72.72-.72a1.018 1.018 0 0 0 0-1.44z"/>
            <circle cx="39.964" cy="1.018" r="1.018"/>
            <circle cx="48.018" cy="15.218" r="1.018"/>
        </g>
        <path d="M33.964 23.247a13.059 13.059 0 0 1 5.072 0 1 1 0 0 1-.388 1.962 11.058 11.058 0 0 0-4.296 0 1 1 0 0 1-.388-1.962zm8.372 2.218a1 1 0 0 1 1.388-.275 13.066 13.066 0 0 1 3.586 3.586 1 1 0 0 1-1.662 1.113 11.066 11.066 0 0 0-3.037-3.037 1 1 0 0 1-.275-1.387zm-11.672 0a1 1 0 0 1-.275 1.387 11.066 11.066 0 0 0-3.037 3.037 1 1 0 0 1-1.662-1.113 13.066 13.066 0 0 1 3.586-3.586 1 1 0 0 1 1.388.275zm-5.742 7.212a1 1 0 0 1 .787 1.175 11.058 11.058 0 0 0 0 4.296 1 1 0 0 1-1.962.388 13.059 13.059 0 0 1 0-5.072 1 1 0 0 1 1.175-.787zm23.156 0a1 1 0 0 1 1.175.787 13.06 13.06 0 0 1 0 5.072 1 1 0 1 1-1.962-.388 11.064 11.064 0 0 0 0-4.296 1 1 0 0 1 .787-1.175zm-1.043 9.16a1 1 0 0 1 .275 1.387 13.066 13.066 0 0 1-3.586 3.586 1 1 0 0 1-1.113-1.662 11.067 11.067 0 0 0 3.037-3.037 1 1 0 0 1 1.387-.275zm-21.07 0a1 1 0 0 1 1.387.274 11.066 11.066 0 0 0 3.037 3.037 1 1 0 0 1-1.113 1.662 13.066 13.066 0 0 1-3.586-3.586 1 1 0 0 1 .275-1.388zm7.212 5.74a1 1 0 0 1 1.175-.786 11.064 11.064 0 0 0 4.296 0 1 1 0 0 1 .388 1.962 13.06 13.06 0 0 1-5.072 0 1 1 0 0 1-.787-1.175z"/>
    </g>
</svg>
