<svg width="16" height="16" viewBox="0 0 16 16" xmlns="http://www.w3.org/2000/svg">
    <g fill="#764CF0" fill-rule="nonzero">
        <path d="m15.597 8.166-1.698 6.256a1.086 1.086 0 0 1-1.048.801l-9.86-.006c.163-.223.284-.476.359-.75l1.712-6.3h10.535zM4.633 3.89l1.484 1.164h6.479v2.171H4.342l-1.9 6.996a1.35 1.35 0 0 1-1.334.997l-.03-.001A1.118 1.118 0 0 1 0 14.108V3.89h4.633zm1.428 8.858-.001.94 6.032.007v-.94l-6.031-.007zM11.578.941c1.033 0 1.906.692 2.181 1.637l-.54-.42-.577.743 1.679 1.304L16 2.901l-.577-.743-.676.524A3.218 3.218 0 0 0 11.578 0a3.217 3.217 0 0 0-3.213 3.213h.942A2.275 2.275 0 0 1 11.578.941z"/>
    </g>
</svg>
