<svg width="72" height="72" viewBox="0 0 72 72" xmlns="http://www.w3.org/2000/svg">
    <g fill-rule="nonzero" fill="none">
        <path d="M56.035 0h-40.07C7.151.007.007 7.15 0 15.965v40.07C.007 64.849 7.15 71.993 15.965 72h40.07c8.814-.007 15.958-7.15 15.965-15.965v-40.07C71.993 7.151 64.85.007 56.035 0zm1.527 28.8a34.898 34.898 0 0 1-14.049 27.873l-6.95 5.122a.94.94 0 0 1-1.126 0l-6.95-5.122a34.898 34.898 0 0 1-14.05-27.936v-7c.002-.35.2-.67.514-.826l20.61-10.793a.977.977 0 0 1 .877 0L57.05 20.974a.927.927 0 0 1 .513.826v7z" fill="#F1EDFD"/>
        <path d="m49.9 25.244-13.462-7.05a1.014 1.014 0 0 0-.876 0L22.1 25.244a.927.927 0 0 0-.501.826v2.667a27.723 27.723 0 0 0 11.182 22.189l2.655 1.966a.977.977 0 0 0 1.126 0l2.655-1.966A27.723 27.723 0 0 0 50.4 28.737V26.07a.927.927 0 0 0-.5-.826zM35.06 50.287l-1.164-.864a25.795 25.795 0 0 1-10.418-20.686v-2.09l11.583-6.061v29.701z" fill="#764CF0"/>
    </g>
</svg>
