<svg width="72" height="72" viewBox="0 0 72 72" xmlns="http://www.w3.org/2000/svg">
    <path d="M58.209 40.739h-.021a13.672 13.672 0 0 0-9.73 4.046 14.105 14.105 0 0 0-1.717 2.083l-9.867-5.753v-9.556A13.794 13.794 0 1 0 25.046 9.385a.878.878 0 0 0 1.391 1.072 12.04 12.04 0 1 1 18.208 15.7 9.312 9.312 0 0 0-5.57-6.323 5.58 5.58 0 1 0-6.318-.25 9.386 9.386 0 0 0-6.089 5.845 12.043 12.043 0 0 1-1.785-12.316.878.878 0 1 0-1.617-.684 13.794 13.794 0 0 0 11.848 19.133v9.554l-9.86 5.751a14.122 14.122 0 0 0-1.694-2.062 13.688 13.688 0 0 0-9.758-4.066h-.012C6.632 40.745.666 46.223.052 53.355c-.615 7.132 4.326 13.55 11.377 14.78 7.052 1.23 13.874-3.135 15.71-10.054a.878.878 0 1 0-1.685-.486 12.798 12.798 0 0 1-2.667 4.918 9.285 9.285 0 0 0-5.83-6.07 5.582 5.582 0 1 0-6.337 0 9.334 9.334 0 0 0-5.825 6.077 12.017 12.017 0 0 1 8.996-20.024h.01c6.644.014 12.023 5.403 12.027 12.047a.877.877 0 1 0 1.752.008 13.56 13.56 0 0 0-1.452-6.164l9.865-5.75 9.868 5.754a13.6 13.6 0 0 0-1.462 6.157c.004 7.62 6.183 13.794 13.803 13.792 7.62 0 13.796-6.177 13.798-13.797.002-7.62-6.172-13.799-13.791-13.804zM13.79 48.024a3.83 3.83 0 1 1 0 7.659 3.83 3.83 0 0 1 0-7.659zm0 9.626a7.572 7.572 0 0 1 7.523 6.281 11.983 11.983 0 0 1-15.043 0 7.598 7.598 0 0 1 7.52-6.281zm22.312-46.358h.16a3.822 3.822 0 0 1 3.656 3.982 3.83 3.83 0 0 1-3.815 3.67h-.158a3.83 3.83 0 0 1 .157-7.654v.002zm-.234 9.62a7.582 7.582 0 0 1 7.244 6.583 11.972 11.972 0 0 1-7.11 2.353h-.015c-2.896 0-5.694-1.05-7.876-2.954a7.643 7.643 0 0 1 7.755-5.982h.002zm14.82 43.014a7.643 7.643 0 0 1 15.04 0 11.967 11.967 0 0 1-15.04 0zm7.52-8.247a3.83 3.83 0 1 1 3.817-3.828 3.834 3.834 0 0 1-3.817 3.832v-.004zm8.995 6.827a9.295 9.295 0 0 0-5.828-6.07 5.581 5.581 0 1 0-6.335.007 9.368 9.368 0 0 0-5.825 6.077 12.036 12.036 0 0 1 8.974-20.024h.019a12.02 12.02 0 0 1 8.995 20.013v-.003z" fill="#C0C0C9" fill-rule="evenodd"/>
</svg>
