<svg width="73" height="72" viewBox="0 0 73 72" xmlns="http://www.w3.org/2000/svg">
    <g fill-rule="nonzero" fill="none">
        <path d="M59 72H14C6.543 72 .5 65.957.5 58.5v-45C.5 6.043 6.543 0 14 0h45c7.457 0 13.5 6.043 13.5 13.5v45C72.5 65.957 66.457 72 59 72z" fill="#FEF7EC"/>
        <path d="m20.155 32.005 12.35-12.35a5.65 5.65 0 0 1 7.99 0l12.35 12.35a5.65 5.65 0 0 1 0 7.99l-12.35 12.35a5.65 5.65 0 0 1-7.99 0l-12.35-12.35a5.65 5.65 0 0 1 0-7.99z" fill="#FDAF43"/>
        <g fill="#FFF">
            <path d="M36.5 28.09c.623 0 1.13.506 1.13 1.13v9.04a1.13 1.13 0 0 1-2.26 0v-9.04c0-.624.505-1.13 1.13-1.13zM35.37 41.65h2.26v2.26h-2.26z"/>
        </g>
    </g>
</svg>
