<svg width="16" height="16" viewBox="0 0 16 16" xmlns="http://www.w3.org/2000/svg">
    <g fill-rule="nonzero" fill="none">
        <path d="M14.802 3H1.198C.536 3 0 3.537 0 4.198v8.087c0 .661.536 1.198 1.198 1.198h13.604c.662 0 1.198-.537 1.198-1.198V4.198C16 3.536 15.464 3 14.802 3z" fill="#41479B"/>
        <path d="M15.983 4c-.094-.567-.587-1-1.181-1h-.312L9.38 6.348V3H6.62v3.348L1.51 3h-.312C.604 3 .111 3.433.017 4l4.368 2.862H0v2.759h4.385L.017 12.483c.094.567.587 1 1.181 1h.312l5.11-3.349v3.349h2.76v-3.349l5.11 3.349h.312c.594 0 1.087-.433 1.181-1L11.615 9.62H16V6.862h-4.385L15.983 4z" fill="#F5F5F5"/>
        <g fill="#FF4B55">
            <path d="M8.828 3H7.172v4.414H0v1.655h7.172v4.414h1.656V9.069H16V7.414H8.828z"/>
            <path d="m.775 13.406 5.83-3.785H5.593L.288 13.064c.13.151.297.27.487.342zM10.825 9.62H9.81l5.648 3.666c.158-.103.29-.243.384-.408L10.825 9.62zM.127 3.662l4.929 3.2h1.013L.484 3.236c-.15.112-.273.258-.357.426zM10.393 6.862l5.313-3.45a1.2 1.2 0 0 0-.49-.339l-5.837 3.79h1.014z"/>
        </g>
    </g>
</svg>
