<svg width="16" height="16" viewBox="0 0 16 16" xmlns="http://www.w3.org/2000/svg">
    <g fill-rule="nonzero" fill="none">
        <path d="M14.806 3H1.197C.537 3 0 3.534 0 4.197v8.09c0 .662.538 1.196 1.197 1.196h13.606c.663 0 1.197-.537 1.197-1.197V4.197A1.193 1.193 0 0 0 14.806 3z" fill="#FF4B55"/>
        <path d="m8.13 5.116.737 2.213 2.332.019c.131 0 .184.169.078.244L9.402 8.976l.703 2.222c.04.125-.103.229-.21.15L8.003 9.995l-1.898 1.357c-.106.075-.247-.029-.21-.15l.704-2.223-1.875-1.384c-.106-.078-.05-.244.078-.244l2.332-.019.737-2.213c.044-.128.22-.128.26-.003z" fill="#FFE15A"/>
    </g>
</svg>
